#!OML:ASF H:\Terrain\Patient Classification 1\PLAYGROUND\JustinFriday\JustinFriday.ASF
:FULLY-SPECIFIED
:DEGREES
1
root 9.37216 17.8693 -17.3198 -2.01677 -7.59696 -3.23164
lowerback 2.30193 -0.395121 1.17299
upperback 0.0030495 -0.462657 2.70388
thorax -1.27453 -0.231833 2.13151
lowerneck -9.32819 -3.76531 -6.70788
upperneck 27.8377 -3.2335 -3.01318
head 10.556 -2.55728 -0.318388
rclavicle 3.64024e-015 -6.75868e-015
rhumerus -29.5133 -11.7797 -80.4307
rradius 21.1829
rwrist -7.55893
rhand -17.4806 -21.0413
rfingers 7.12502
rthumb 8.77158 -50.8391
lclavicle 3.64024e-015 -6.75868e-015
lhumerus 17.2039 -14.515 62.7889
lradius 136.231
lwrist 10.1195
lhand -37.631 -17.4438
lfingers 7.12502
lthumb -10.6834 12.2646
rfemur -0.629535 4.65229 22.5467
rtibia 26.4457
rfoot -15.2124 -9.97437
rtoes 3.93605
lfemur 4.00236 1.20472 -13.8412
ltibia 20.088
lfoot -16.1868 6.57726
ltoes -4.61789
2
root 9.37285 17.8666 -17.3192 -2.06376 -7.58832 -3.1009
lowerback 2.29991 -0.349181 1.09181
upperback 0.0947876 -0.407398 2.60055
thorax -1.18102 -0.204204 2.06826
lowerneck -9.38789 -3.85899 -6.63958
upperneck 27.573 -3.42999 -2.83518
head 10.4723 -2.61267 -0.285962
rclavicle -1.76297e-014 2.0276e-014
rhumerus -29.4939 -11.6907 -80.6889
rradius 21.2821
rwrist -8.65953
rhand -17.8293 -21.0633
rfingers 7.12502
rthumb 8.43505 -50.8749
lclavicle -1.76297e-014 2.0276e-014
lhumerus 17.6594 -14.5367 62.772
lradius 136.154
lwrist 10.1235
lhand -37.5333 -17.5104
lfingers 7.12502
lthumb -10.5891 12.2028
rfemur -0.610476 4.56991 22.3851
rtibia 26.5313
rfoot -15.263 -9.92583
rtoes 3.88232
lfemur 4.09038 1.19687 -14.0011
ltibia 19.9922
lfoot -16.3203 6.5712
ltoes -4.29676
3
root 9.36924 17.8658 -17.3215 -2.08624 -7.53541 -3.20952
lowerback 2.40927 -0.341368 1.15325
upperback 0.0914609 -0.391867 2.6267
thorax -1.24644 -0.196673 2.06109
lowerneck -9.29056 -3.91364 -6.80735
upperneck 27.3923 -3.57141 -2.52178
head 10.3988 -2.65388 -0.15793
rclavicle 1.11071e-014 -7.15625e-015
rhumerus -29.4949 -11.4934 -80.8962
rradius 21.0916
rwrist -9.76415
rhand -18.6086 -20.6482
rfingers 7.12502
rthumb 7.68291 -50.4886
lclavicle 1.11071e-014 -7.15625e-015
lhumerus 18.0329 -14.7893 62.8649
lradius 136.077
lwrist 10.2479
lhand -37.5642 -18.6327
lfingers 7.12502
lthumb -10.6189 11.079
rfemur -0.584382 4.63926 22.5698
rtibia 26.6186
rfoot -15.2777 -10.1364
rtoes 3.73231
lfemur 4.15146 1.15468 -13.8566
ltibia 19.9336
lfoot -16.299 6.62697
ltoes -5.03798
4
root 9.37257 17.8597 -17.326 -2.19936 -7.38318 -2.9561
lowerback 2.57814 -0.391672 0.860793
upperback 0.0854141 -0.462952 2.59317
thorax -1.3433 -0.230351 2.19494
lowerneck -9.19978 -3.86999 -6.93745
upperneck 27.3482 -3.53605 -2.35956
head 10.3704 -2.63105 -0.0716203
rclavicle -3.59552e-014 1.98785e-015
rhumerus -29.5008 -12.085 -80.5794
rradius 20.5984
rwrist -8.58146
rhand -18.669 -20.6674
rfingers 7.12502
rthumb 7.62465 -50.51
lclavicle -3.59552e-014 1.98785e-015
lhumerus 18.1608 -15.012 62.8968
lradius 135.987
lwrist 9.91931
lhand -37.9202 -20.0086
lfingers 7.12502
lthumb -10.9623 9.68521
rfemur -0.494681 4.48758 22.2688
rtibia 26.686
rfoot -15.4208 -10.1225
rtoes 3.86776
lfemur 4.23306 0.937041 -14.1641
ltibia 19.9121
lfoot -16.348 6.69497
ltoes -5.39028
5
root 9.37326 17.8536 -17.3317 -2.26876 -7.3527 -2.91098
lowerback 2.68069 -0.422154 0.745096
upperback 0.109155 -0.504697 2.6374
thorax -1.37374 -0.250414 2.30795
lowerneck -9.03979 -3.79209 -7.08472
upperneck 27.181 -3.45259 -2.21513
head 10.282 -2.58658 0.0202544
rclavicle 3.97569e-015 -2.78299e-014
rhumerus -29.5129 -12.2041 -80.4556
rradius 20.4393
rwrist -7.49431
rhand -18.6715 -22.4402
rfingers 7.12502
rthumb 7.62223 -52.2829
lclavicle 3.97569e-015 -2.78299e-014
lhumerus 18.1722 -14.9233 63.0134
lradius 135.909
lwrist 9.16555
lhand -38.2145 -19.1171
lfingers 7.12502
lthumb -11.2462 10.5614
rfemur -0.437386 4.48759 22.2324
rtibia 26.7092
rfoot -15.4479 -10.237
rtoes 3.53431
lfemur 4.26185 0.818434 -14.2309
ltibia 19.9462
lfoot -16.4514 6.68937
ltoes -4.91302
6
root 9.36894 17.853 -17.335 -2.27502 -7.38075 -3.04336
lowerback 2.70333 -0.418993 0.76871
upperback 0.130219 -0.498534 2.74008
thorax -1.36437 -0.247388 2.40035
lowerneck -8.92491 -3.79578 -7.24291
upperneck 26.9579 -3.47485 -2.09024
head 10.185 -2.59255 0.0939518
rclavicle 9.54166e-015 7.95139e-016
rhumerus -29.5845 -11.8025 -80.5141
rradius 20.2988
rwrist -7.56873
rhand -18.9703 -21.9571
rfingers 7.12502
rthumb 7.33378 -51.81
lclavicle 9.54166e-015 7.95139e-016
lhumerus 18.4209 -14.7522 63.1773
lradius 135.98
lwrist 9.06085
lhand -37.9464 -17.1405
lfingers 7.12502
lthumb -10.9876 12.5519
rfemur -0.457306 4.73247 22.4631
rtibia 26.6999
rfoot -15.4113 -10.5301
rtoes 3.34243
lfemur 4.19808 0.919717 -14.0503
ltibia 20.0274
lfoot -16.4786 6.58214
ltoes -4.48082
7
root 9.36763 17.8526 -17.3375 -2.26856 -7.25299 -3.03823
lowerback 2.67127 -0.444251 0.70364
upperback 0.171168 -0.535811 2.76618
thorax -1.3022 -0.265945 2.4646
lowerneck -9.02001 -3.81909 -7.27759
upperneck 26.8645 -3.51813 -1.9964
head 10.1726 -2.60282 0.127185
rclavicle -1.75427e-014 -4.37326e-015
rhumerus -29.7043 -11.9214 -80.3662
rradius 20.097
rwrist -7.51205
rhand -18.846 -20.1601
rfingers 7.12502
rthumb 7.45376 -50.0088
lclavicle -1.75427e-014 -4.37326e-015
lhumerus 18.7566 -14.7586 63.23
lradius 136.063
lwrist 9.36891
lhand -37.7204 -16.4464
lfingers 7.12502
lthumb -10.7696 13.2575
rfemur -0.430117 4.82015 22.5066
rtibia 26.5765
rfoot -15.4658 -10.7129
rtoes 3.71316
lfemur 4.01514 0.896774 -14.0393
ltibia 20.2716
lfoot -16.5941 6.50533
ltoes -4.31087
8
root 9.36475 17.8499 -17.3463 -2.21579 -7.08747 -3.30204
lowerback 2.69367 -0.508644 0.89111
upperback 0.215853 -0.615875 2.84819
thorax -1.26701 -0.307184 2.44659
lowerneck -9.00787 -3.77974 -7.30619
upperneck 26.6336 -3.50955 -1.81427
head 10.0884 -2.57514 0.200847
rclavicle 5.29264e-015 -1.98785e-015
rhumerus -29.7041 -12.1718 -80.3228
rradius 20.2033
rwrist -7.30904
rhand -18.8505 -21.4742
rfingers 7.12502
rthumb 7.44948 -51.323
lclavicle 5.29264e-015 -1.98785e-015
lhumerus 18.8069 -14.7972 63.2476
lradius 135.909
lwrist 9.12862
lhand -37.9562 -17.2697
lfingers 7.12502
lthumb -10.997 12.4222
rfemur -0.357426 4.96686 22.8782
rtibia 26.365
rfoot -15.5339 -10.927
rtoes 4.23023
lfemur 3.77334 0.834315 -13.7017
ltibia 20.5971
lfoot -16.7765 6.37146
ltoes -4.06583
9
root 9.35985 17.8506 -17.3603 -2.09165 -7.07998 -3.91433
lowerback 2.74467 -0.530213 1.40167
upperback 0.31353 -0.629059 3.02054
thorax -1.19854 -0.316564 2.3376
lowerneck -8.99324 -3.72195 -7.32522
upperneck 26.2203 -3.49388 -1.5739
head 9.93775 -2.53213 0.296232
rclavicle 2.56556e-015 -1.98785e-014
rhumerus -29.4944 -12.9795 -80.0231
rradius 19.9865
rwrist -5.79825
rhand -18.015 -21.7907
rfingers 7.12502
rthumb 8.25581 -51.6093
lclavicle 2.56556e-015 -1.98785e-014
lhumerus 18.9418 -14.774 63.1856
lradius 135.648
lwrist 8.3747
lhand -38.3758 -18.4723
lfingers 7.12502
lthumb -11.4017 11.1978
rfemur -0.366742 5.15676 23.6352
rtibia 26.1566
rfoot -15.4337 -11.0847
rtoes 4.41292
lfemur 3.50454 0.878785 -12.959
ltibia 20.8981
lfoot -16.9368 6.20812
ltoes -3.68556
